<?xml version="1.0" encoding="iso-8859-1"?>
<!-- Generator: Adobe Illustrator 21.0.0, SVG Export Plug-In . SVG Version: 6.00 Build 0)  -->
<svg version="1.1" id="Layer_1" xmlns="http://www.w3.org/2000/svg" xmlns:xlink="http://www.w3.org/1999/xlink" x="0px" y="0px"
	 viewBox="0 0 100.353 100.353" style="enable-background:new 0 0 100.353 100.353;" xml:space="preserve">
<path style="fill:#231F20;" d="M81.837,19.74H60.815c0.501-0.952,0.778-1.996,0.778-3.061c0-3.661-2.979-6.639-6.641-6.639
	c-2.072,0-3.927,0.952-5.146,2.442c-1.219-1.49-3.071-2.442-5.142-2.442c-3.662,0-6.641,2.979-6.641,6.639
	c0,1.07,0.258,2.105,0.765,3.061h-20.62c-3.208,0-5.818,2.934-5.818,6.541V88.46c0,0.828,0.671,1.5,1.5,1.5h9.538
	c0.829,0,1.5-0.672,1.5-1.5V65.779c16.029-0.904,22.393-12.036,24.875-21.828c3.091,13.113,11.814,20.713,25.349,21.8V88.46
	c0,0.828,0.672,1.5,1.5,1.5h9.539c0.828,0,1.5-0.672,1.5-1.5V26.281C87.651,22.674,85.043,19.74,81.837,19.74z M44.664,13.04
	c2.008,0,3.641,1.632,3.641,3.639c0,0.829,0.671,1.5,1.5,1.5s1.5-0.671,1.5-1.5c0-2.007,1.636-3.639,3.646-3.639
	c2.008,0,3.641,1.632,3.641,3.639c0,0.658-0.188,1.31-0.544,1.891l-8.244,10.328l-8.057-10.066
	c-0.474-0.635-0.725-1.379-0.725-2.152C41.023,14.672,42.656,13.04,44.664,13.04z M15.35,86.96V26.281
	c0-1.952,1.264-3.541,2.818-3.541h22.867l5.791,7.237l-3.081-0.004l-1.477,0.088l-15.827-0.046c-2.554,0-4.554,2.57-4.554,5.85
	V86.96H15.35z M24.888,62.766v-26.9c0-1.631,0.82-2.85,1.549-2.85l15.914,0.043l1.479-0.088l4.442,0.007
	C47.636,57.591,33.117,62.168,24.888,62.766z M51.51,32.982l22.053,0.033c0.731,0,1.549,1.219,1.549,2.85v26.873
	C56.037,61.091,51.674,45.928,51.51,32.982z M84.651,86.96h-6.539V35.865c0-3.28-1.998-5.85-4.547-5.85l-20.791-0.03l5.784-7.245
	h23.279c1.552,0,2.814,1.588,2.814,3.541V86.96z"/>
</svg>
