<svg id="Слой_2" data-name="Слой 2" xmlns="http://www.w3.org/2000/svg" viewBox="0 0 101 101"><title>hhhArtboard 2 copy 4</title><path d="M94.94,61.89l0-.06a1.5,1.5,0,0,0,0-.33V30a11,11,0,0,0-18.11-8.4,1.5,1.5,0,0,0,1.94,2.29A8,8,0,0,1,92,30V59.77L81.78,58.31l-5.42-11a1.5,1.5,0,0,0-2.69,0l-5.42,11L56.83,60a10.34,10.34,0,0,0-6.16-2.62A10.34,10.34,0,0,0,44.51,60L33.08,58.31l-5.42-11a1.5,1.5,0,0,0-2.69,0l-5.42,11L9,59.83V30a8,8,0,0,1,13.17-6.11,1.5,1.5,0,0,0,1.94-2.29A11,11,0,0,0,6,30V61.5H6s0,.07,0,.11a1.52,1.52,0,0,0,0,.19,1.49,1.49,0,0,0,.43.83l8.91,8.55L13.31,83.25a1.5,1.5,0,0,0,2.18,1.58l10.84-5.7,10.84,5.7a1.5,1.5,0,0,0,2.18-1.58L37.26,71.18,46,62.63h0c.66-.63,2.76-2.27,4.64-2.27s4,1.64,4.63,2.27h0l8.77,8.55L62,83.25a1.5,1.5,0,0,0,2.18,1.58L75,79.13l10.84,5.7A1.5,1.5,0,0,0,88,83.25L86,71.17l8.6-8.61a1.5,1.5,0,0,0,.23-.3l0-.09A1.48,1.48,0,0,0,94.94,61.89ZM34.61,69.58a1.5,1.5,0,0,0-.43,1.33l1.69,9.85L27,76.11a1.5,1.5,0,0,0-1.4,0l-8.84,4.65,1.69-9.85A1.5,1.5,0,0,0,18,69.57l-7.27-7,10-1.44a1.5,1.5,0,0,0,1.13-.82l4.42-9,4.42,9a1.5,1.5,0,0,0,1.13.82l9.89,1.44Zm48.68,0a1.5,1.5,0,0,0-.42,1.31l1.69,9.85-8.84-4.65a1.5,1.5,0,0,0-1.4,0l-8.84,4.65,1.69-9.85a1.5,1.5,0,0,0-.43-1.33l-7.16-7,9.89-1.44a1.5,1.5,0,0,0,1.13-.82l4.42-9,4.42,9a1.5,1.5,0,0,0,1.13.82l9.75,1.39Z"/></svg>