<svg id="Слой_2" data-name="Слой 2" xmlns="http://www.w3.org/2000/svg" viewBox="0 0 101 101"><title>hhhArtboard 2 copy 6</title><path d="M97.74,35.75a1.5,1.5,0,0,0-1.88-1L79,40,85.74,27.1a1.5,1.5,0,1,0-2.66-1.39L74.9,41.3,64.7,44.48,52,35.24V24.53L64.45,12.08A1.5,1.5,0,1,0,62.33,10L52,20.29V2.5a1.5,1.5,0,0,0-3,0V20.29L38.67,10a1.5,1.5,0,1,0-2.12,2.12L49,24.53v10.7L36.31,44.47,26.14,41.3,18,25.71A1.5,1.5,0,0,0,15.3,27.1L22.09,40,5.18,34.76a1.5,1.5,0,1,0-.89,2.86L21.2,42.9,8.26,49.69a1.5,1.5,0,1,0,1.39,2.66l15.59-8.18,10.16,3.17,4.82,14.86-6.38,8.64L16.44,73.46a1.5,1.5,0,0,0,.45,3l14.44-2.18L20.82,88.5a1.5,1.5,0,0,0,2.41,1.78L33.75,76l2.18,14.44a1.5,1.5,0,0,0,1.48,1.28l.23,0A1.5,1.5,0,0,0,38.89,90L36.27,72.62,42.63,64H58.28l6.36,8.62L62,90a1.5,1.5,0,0,0,1.26,1.71l.23,0A1.5,1.5,0,0,0,65,90.47L67.16,76,77.67,90.28a1.5,1.5,0,0,0,2.41-1.78L69.57,74.25,84,76.42a1.5,1.5,0,0,0,.45-3L67.05,70.83l-6.31-8.55,4.84-14.94L75.8,44.16l15.59,8.18a1.5,1.5,0,0,0,1.39-2.66L79.85,42.9l16.91-5.27A1.5,1.5,0,0,0,97.74,35.75ZM58,61H43L38.36,46.69,50.5,37.86l12.14,8.84Z"/></svg>